<svg xmlns="http://www.w3.org/2000/svg" viewBox="0 0 480 480" width="480" height="480"><rect width="480" height="480" fill="#deddb8"/><circle cx="367" cy="106" r="154" fill="#fff8df" opacity=".26"/><path d="M-40 375Q150 273 504 394M-20 398Q222 282 520 432" fill="none" stroke="#573c28" opacity=".1"/><path d="M65 480v-42q9-87 130-105h91q112 23 128 106v41" fill="#315746"/><path d="m186 342 54 74 51-74M240 416v64" fill="none" stroke="#f3e6c9" stroke-width="7"/><circle cx="264" cy="443" r="5" fill="#d5aa65"/><ellipse cx="143" cy="228" rx="40" ry="47" fill="#9c6b42"/><ellipse cx="337" cy="228" rx="40" ry="47" fill="#9c6b42"/><path d="M151 201q0-104 89-114 93 12 90 119v77q-26 64-90 64-76 0-91-69z" fill="#6a482e"/><path d="m174 128 5-53 39 27 38-48 22 44 43 6-20 35" fill="#573c28"/><ellipse cx="241" cy="250" rx="67" ry="65" fill="#c99b68"/><ellipse cx="240" cy="239" rx="24" ry="14" fill="#573c28"/><path d="M207 279q35 18 69-3" fill="none" stroke="#573c28" stroke-width="7" stroke-linecap="round"/><g stroke="#e9d9a7" stroke-width="10" fill="#203e36"><rect x="150" y="177" width="79" height="54" rx="25"/><rect x="251" y="177" width="79" height="54" rx="25"/><path d="M229 193h22"/></g></svg>