<svg xmlns="http://www.w3.org/2000/svg" viewBox="0 0 480 480" width="480" height="480"><rect width="480" height="480" fill="#c5d6ba"/><circle cx="367" cy="106" r="154" fill="#fff8df" opacity=".26"/><path d="M-40 375Q150 273 504 394M-20 398Q222 282 520 432" fill="none" stroke="#272f2d" opacity=".1"/><path d="M65 480v-42q9-87 130-105h91q112 23 128 106v41" fill="#d7c4a0"/><path d="m186 342 54 74 51-74M240 416v64" fill="none" stroke="#f3e6c9" stroke-width="7"/><circle cx="264" cy="443" r="5" fill="#d5aa65"/><path d="m154 179-18-97 78 40q33-11 61 0l78-40-17 105v95q-24 65-96 69-71-4-96-69z" fill="#303b35"/><path d="m160 161-4-46 35 25m98 0 34-25-3 47" fill="#7b8b72"/><path d="M156 195q36-34 70 4m26 0q35-34 70-4" fill="none" stroke="#151f1b" stroke-width="16"/><path d="m174 207 39 8m54 0 39-8" stroke="#dfbd64" stroke-width="9" stroke-linecap="round"/><ellipse cx="213" cy="269" rx="37" ry="30" fill="#7f8c79"/><ellipse cx="267" cy="269" rx="37" ry="30" fill="#7f8c79"/><path d="m220 245 20 20 20-20z" fill="#17201b"/><path d="M240 263v26m-22 7 22-7 22 7" stroke="#26332b" fill="none" stroke-width="5"/></svg>